<svg width="24" height="24" viewBox="0 0 24 24" fill="none" xmlns="http://www.w3.org/2000/svg">
<path d="M12 14.8489L3.45324 23.3957C3.05036 23.7986 2.57554 24 2.02878 24C1.48201 24 1.00719 23.7986 0.604317 23.3957C0.201439 22.9928 0 22.518 0 21.9712C0 21.4245 0.201439 20.9496 0.604317 20.5468L9.15108 12L0.604317 3.45324C0.201439 3.05036 0 2.57554 0 2.02878C0 1.48201 0.201439 1.00719 0.604317 0.604317C1.00719 0.201439 1.48201 0 2.02878 0C2.57554 0 3.05036 0.201439 3.45324 0.604317L12 9.15108L20.5468 0.604317C20.9496 0.201439 21.4245 0 21.9712 0C22.518 0 22.9928 0.201439 23.3957 0.604317C23.7986 1.00719 24 1.48201 24 2.02878C24 2.57554 23.7986 3.05036 23.3957 3.45324L14.8489 12L23.3957 20.5468C23.7986 20.9496 24 21.4245 24 21.9712C24 22.518 23.7986 22.9928 23.3957 23.3957C22.9928 23.7986 22.518 24 21.9712 24C21.4245 24 20.9496 23.7986 20.5468 23.3957L12 14.8489Z" fill="#212529"/>
</svg>
