<svg width="24" height="18" viewBox="0 0 24 18" fill="none" xmlns="http://www.w3.org/2000/svg">
<path d="M1.49602 17.5464C1.07692 17.5464 0.722812 17.4013 0.433687 17.1111C0.144562 16.8209 0 16.4655 0 16.0448C0 15.6241 0.144562 15.2706 0.433687 14.9841C0.722812 14.6976 1.07692 14.5544 1.49602 14.5544H22.504C22.9231 14.5544 23.2772 14.6995 23.5663 14.9897C23.8554 15.2799 24 15.6353 24 16.056C24 16.4767 23.8554 16.8302 23.5663 17.1167C23.2772 17.4032 22.9231 17.5464 22.504 17.5464H1.49602ZM1.49602 10.5119C1.07692 10.5119 0.722812 10.3668 0.433687 10.0767C0.144562 9.78645 0 9.43102 0 9.01035C0 8.58966 0.144562 8.23608 0.433687 7.9496C0.722812 7.66313 1.07692 7.5199 1.49602 7.5199H22.504C22.9231 7.5199 23.2772 7.66499 23.5663 7.95517C23.8554 8.24538 24 8.60082 24 9.02149C24 9.44218 23.8554 9.79576 23.5663 10.0822C23.2772 10.3687 22.9231 10.5119 22.504 10.5119H1.49602ZM1.49602 3.47746C1.07692 3.47746 0.722812 3.33236 0.433687 3.04218C0.144562 2.75197 0 2.39653 0 1.97586C0 1.55517 0.144562 1.19629 0.433687 0.899206C0.722812 0.602124 1.07692 0.453583 1.49602 0.453583H22.504C22.9231 0.453583 23.2772 0.60398 23.5663 0.904776C23.8554 1.20559 24 1.56634 24 1.987C24 2.40769 23.8554 2.76128 23.5663 3.04775C23.2772 3.33422 22.9231 3.47746 22.504 3.47746H1.49602Z" fill="#212529"/>
</svg>
